<svg xmlns="http://www.w3.org/2000/svg" width="15" height="12" viewBox="0 0 15 12">
    <g fill="#FFCB05" fill-rule="nonzero">
        <path d="M14.24.455a.91.91 0 0 0-.185 0H1.327a.91.91 0 0 0-.24.036l6.568 6.54L14.24.456z"/>
        <path d="M14.914 1.086L8.295 7.677a.91.91 0 0 1-1.281 0l-6.56-6.54a.91.91 0 0 0-.031.227v9.09c0 .503.407.91.909.91h12.727a.91.91 0 0 0 .91-.91v-9.09a.91.91 0 0 0-.055-.278zm-12.96 9.369h-.631v-.65l3.304-3.278.641.641-3.313 3.287zm12.096 0h-.636L10.1 7.168l.64-.64 3.305 3.277.005.65z"/>
    </g>
</svg>
