<?xml version="1.0" encoding="UTF-8"?>
<svg width="220px" height="39px" viewBox="0 0 220 39" version="1.1" xmlns="http://www.w3.org/2000/svg" xmlns:xlink="http://www.w3.org/1999/xlink">
    <!-- Generator: Sketch 59.1 (86144) - https://sketch.com -->
    <title>horizontal-background</title>
    <desc>Created with Sketch.</desc>
    <defs>
        <polygon id="path-1" points="0.06 0.103 219.341 0.103 219.341 39 0.06 39"></polygon>
    </defs>
    <g id="horizontal-background" stroke="none" stroke-width="1" fill="none" fill-rule="evenodd">
        <mask id="mask-2" fill="white">
            <use xlink:href="#path-1"></use>
        </mask>
        <g id="Clip-2"></g>
        <path d="M219.341,39 L214.8,39 L219.341,38.049 L219.341,39 M0,1.013 L0,0.103 L4.346,0.103 L0,1.013 M0,2.921 L0,1.9 L8.582,0.103 L13.461,0.103 L0,2.921 M0,4.829 L0,3.808 L17.696,0.103 L22.575,0.103 L0,4.829 M0,6.737 L0,5.716 L26.811,0.103 L31.69,0.103 L0,6.737 M0,8.645 L0,7.624 L35.926,0.103 L40.805,0.103 L0,8.645 M0,10.554 L0,9.532 L45.04,0.103 L49.92,0.103 L0,10.554 M0,12.462 L0,11.44 L54.155,0.103 L59.034,0.103 L0,12.462 M0,14.37 L0,13.349 L63.27,0.103 L68.149,0.103 L0,14.37 M0,16.278 L0,15.257 L72.385,0.103 L77.264,0.103 L0,16.278 M0,18.186 L0,17.165 L81.5,0.103 L86.379,0.103 L0,18.186 M0,20.095 L0,19.073 L90.615,0.103 L95.494,0.103 L0,20.095 M0,22.003 L0,20.981 L99.729,0.103 L104.608,0.103 L0,22.003 M0,23.911 L0,22.89 L108.844,0.103 L113.723,0.103 L0,23.911 M0,25.819 L0,24.798 L117.958,0.103 L122.838,0.103 L0,25.819 M0,27.727 L0,26.706 L127.074,0.103 L131.953,0.103 L0,27.727 M0,29.636 L0,28.614 L136.188,0.103 L141.067,0.103 L0,29.636 M0,31.544 L0,30.522 L145.303,0.103 L150.182,0.103 L0,31.544 M0,33.452 L0,32.431 L154.418,0.103 L159.297,0.103 L0,33.452 M0,35.36 L0,34.339 L163.533,0.103 L168.412,0.103 L0,35.36 M0,37.268 L0,36.247 L172.647,0.103 L177.526,0.103 L0,37.268 M0.844,39 L0,39 L0,38.155 L181.762,0.103 L186.641,0.103 L0.844,39 M9.959,39 L5.079,39 L190.876,0.103 L195.756,0.103 L9.959,39 M19.154,39 L14.275,39 L200.072,0.103 L204.951,0.103 L19.154,39 M28.269,39 L23.39,39 L209.187,0.103 L214.066,0.103 L28.269,39 M37.383,39 L32.504,39 L218.301,0.103 L219.341,0.103 L219.341,0.907 L37.383,39 M46.498,39 L41.619,39 L219.341,1.793 L219.341,2.815 L46.498,39 M55.613,39 L50.734,39 L219.341,3.702 L219.341,4.723 L55.613,39 M64.728,39 L59.849,39 L219.341,5.61 L219.341,6.631 L64.728,39 M73.842,39 L68.963,39 L219.341,7.518 L219.341,8.539 L73.842,39 M82.957,39 L78.078,39 L219.341,9.426 L219.341,10.448 L82.957,39 M92.072,39 L87.193,39 L219.341,11.334 L219.341,12.356 L92.072,39 M101.187,39 L96.308,39 L219.341,13.243 L219.341,14.264 L101.187,39 M110.301,39 L105.422,39 L219.341,15.151 L219.341,16.172 L110.301,39 M119.416,39 L114.537,39 L219.341,17.059 L219.341,18.081 L119.416,39 M128.531,39 L123.652,39 L219.341,18.967 L219.341,19.989 L128.531,39 M137.646,39 L132.767,39 L219.341,20.875 L219.341,21.897 L137.646,39 M146.761,39 L141.882,39 L219.341,22.784 L219.341,23.804 L146.761,39 M155.875,39 L150.996,39 L219.341,24.692 L219.341,25.713 L155.875,39 M164.99,39 L160.111,39 L219.341,26.6 L219.341,27.621 L164.99,39 M174.105,39 L169.225,39 L219.341,28.508 L219.341,29.53 L174.105,39 M183.22,39 L178.341,39 L219.341,30.417 L219.341,31.438 L183.22,39 M192.334,39 L187.455,39 L219.341,32.325 L219.341,33.346 L192.334,39 M201.449,39 L196.57,39 L219.341,34.233 L219.341,35.254 L201.449,39 M210.564,39 L205.685,39 L219.341,36.142 L219.341,37.162 L210.564,39" id="Fill-1" fill="#B4B5B4" mask="url(#mask-2)"></path>
    </g>
</svg>