<?xml version="1.0" encoding="UTF-8"?>
<svg width="30" height="30" version="1.1" viewBox="0 0 15 20.728" xmlns="http://www.w3.org/2000/svg" xmlns:cc="http://creativecommons.org/ns#" xmlns:dc="http://purl.org/dc/elements/1.1/" xmlns:rdf="http://www.w3.org/1999/02/22-rdf-syntax-ns#">
 <metadata>
  <rdf:RDF>
   <cc:Work rdf:about="">
    <dc:format>image/svg+xml</dc:format>
    <dc:type rdf:resource="http://purl.org/dc/dcmitype/StillImage"/>
    <dc:title/>
   </cc:Work>
  </rdf:RDF>
 </metadata>
 <g transform="matrix(.6364 0 0 .6364 -.14001 0)" fill="#ffcb05">
  <path d="m12 0c-6.484 5e-3 -11.747 5.246-11.78 11.73 0 4.67 2.62 8.58 4.54 11.43l0.35 0.52a99.61 99.61 0 0 0 6.14 8l0.76 0.89 0.76-0.89a99.82 99.82 0 0 0 6.14-8l0.35-0.53c1.91-2.85 4.53-6.75 4.53-11.42-0.033-6.488-5.302-11.73-11.79-11.73zm0 17a6.56 6.56 0 1 1 0-13.12 6.56 6.56 0 0 1 0 13.12z"/>
  <circle cx="12" cy="10.44" r="3.73"/>
 </g>
</svg>
