<svg xmlns="http://www.w3.org/2000/svg" width="15" height="14" viewBox="0 0 15 14">
    <path fill="#FFCB05" fill-rule="nonzero" d="M6.024 7.778a8.7 8.7 0 0 0 3.13 1.89l1.593-1.183a.3.3 0 0 1 .322 0l2.96 1.78a.786.786 0 0 1 .405.594.761.761 0 0 1-.266.66l-1.387 1.28c-.403.371-.98.53-1.535.421-2.726-.525-5.24-1.756-7.251-3.551C2.027 7.855.665 5.548.075 3.027A1.43 1.43 0 0 1 .54 1.626L1.978.33A.881.881 0 0 1 2.67.096a.855.855 0 0 1 .627.361l1.97 2.727c.07.088.07.209 0 .296L3.97 4.937a7.79 7.79 0 0 0 2.055 2.841z"/>
</svg>
