<?xml version="1.0" encoding="UTF-8"?>
<svg width="127px" height="137px" viewBox="0 0 127 137" version="1.1" xmlns="http://www.w3.org/2000/svg" xmlns:xlink="http://www.w3.org/1999/xlink">
    <!-- Generator: Sketch 59.1 (86144) - https://sketch.com -->
    <title>primary-background</title>
    <desc>Created with Sketch.</desc>
    <defs>
        <polygon id="path-1" points="0 0.407 126.246 0.407 126.246 136.94 0 136.94"></polygon>
    </defs>
    <g id="primary-background" stroke="none" stroke-width="1" fill="none" fill-rule="evenodd">
        <mask id="mask-2" fill="white">
            <use xlink:href="#path-1"></use>
        </mask>
        <g id="Clip-2"></g>
        <path d="M126.246,137 L125.008,137 L126.246,135.696 L126.246,137 M0,1.641 L0,0.407 L1.171,0.407 L0,1.641 M0,4.624 L0,3.172 L2.625,0.407 L4.003,0.407 L0,4.624 M0,7.608 L0,6.155 L5.456,0.407 L6.835,0.407 L0,7.608 M0,10.591 L0,9.138 L8.288,0.407 L9.668,0.407 L0,10.591 M0,13.574 L0,12.121 L11.121,0.407 L12.5,0.407 L0,13.574 M0,16.557 L0,15.105 L13.952,0.407 L15.331,0.407 L0,16.557 M0,19.54 L0,18.088 L16.785,0.407 L18.163,0.407 L0,19.54 M0,22.524 L0,21.071 L19.617,0.407 L20.996,0.407 L0,22.524 M0,25.507 L0,24.055 L22.449,0.407 L23.827,0.407 L0,25.507 M0,28.491 L0,27.038 L25.281,0.407 L26.66,0.407 L0,28.491 M0,31.474 L0,30.021 L28.113,0.407 L29.492,0.407 L0,31.474 M0,34.457 L0,33.005 L30.945,0.407 L32.324,0.407 L0,34.457 M0,37.441 L0,35.988 L33.777,0.407 L35.156,0.407 L0,37.441 M0,40.423 L0,38.97 L36.609,0.407 L37.988,0.407 L0,40.423 M0,43.406 L0,41.955 L39.441,0.407 L40.82,0.407 L0,43.406 M0,46.39 L0,44.937 L42.273,0.407 L43.652,0.407 L0,46.39 M0,49.373 L0,47.921 L45.105,0.407 L46.484,0.407 L0,49.373 M0,52.357 L0,50.904 L47.937,0.407 L49.316,0.407 L0,52.357 M0,55.34 L0,53.887 L50.769,0.407 L52.148,0.407 L0,55.34 M0,58.324 L0,56.871 L53.601,0.407 L54.98,0.407 L0,58.324 M0,61.306 L0,59.853 L56.433,0.407 L57.812,0.407 L0,61.306 M0,64.289 L0,62.838 L59.266,0.407 L60.644,0.407 L0,64.289 M0,67.273 L0,65.82 L62.097,0.407 L63.476,0.407 L0,67.273 M0,70.256 L0,68.804 L64.93,0.407 L66.308,0.407 L0,70.256 M0,73.239 L0,71.787 L67.762,0.407 L69.14,0.407 L0,73.239 M0,76.223 L0,74.77 L70.594,0.407 L71.973,0.407 L0,76.223 M0,79.206 L0,77.754 L73.426,0.407 L74.804,0.407 L0,79.206 M0,82.19 L0,80.737 L76.258,0.407 L77.637,0.407 L0,82.19 M0,85.173 L0,83.72 L79.09,0.407 L80.469,0.407 L0,85.173 M0,88.156 L0,86.702 L81.922,0.407 L83.3,0.407 L0,88.156 M0,91.14 L0,89.686 L84.754,0.407 L86.132,0.407 L0,91.14 M0,94.122 L0,92.67 L87.586,0.407 L88.965,0.407 L0,94.122 M0,97.106 L0,95.653 L90.418,0.407 L91.797,0.407 L0,97.106 M0,100.089 L0,98.637 L93.25,0.407 L94.628,0.407 L0,100.089 M0,103.073 L0,101.62 L96.082,0.407 L97.461,0.407 L0,103.073 M0,106.056 L0,104.603 L98.915,0.407 L100.293,0.407 L0,106.056 M0,109.038 L0,107.587 L101.746,0.407 L103.124,0.407 L0,109.038 M0,112.023 L0,110.57 L104.578,0.407 L105.957,0.407 L0,112.023 M0,115.006 L0,113.552 L107.411,0.407 L108.789,0.407 L0,115.006 M0,117.989 L0,116.535 L110.243,0.407 L111.621,0.407 L0,117.989 M0,120.973 L0,119.519 L113.074,0.407 L114.453,0.407 L0,120.973 M0,123.956 L0,122.502 L115.907,0.407 L117.285,0.407 L0,123.956 M0,126.939 L0,125.485 L118.739,0.407 L120.117,0.407 L0,126.939 M0,129.921 L0,128.47 L121.571,0.407 L122.949,0.407 L0,129.921 M0,132.906 L0,131.452 L124.402,0.407 L125.781,0.407 L0,132.906 M0,135.889 L0,134.435 L126.246,1.449 L126.246,2.901 L0,135.889 M1.776,137 L0.398,137 L126.246,4.432 L126.246,5.884 L1.776,137 M4.609,137 L3.229,137 L126.246,7.415 L126.246,8.867 L4.609,137 M7.441,137 L6.062,137 L126.246,10.399 L126.246,11.85 L7.441,137 M10.273,137 L8.893,137 L126.246,13.382 L126.246,14.834 L10.273,137 M13.105,137 L11.725,137 L126.246,16.366 L126.246,17.818 L13.105,137 M15.938,137 L14.558,137 L126.246,19.348 L126.246,20.801 L15.938,137 M18.769,137 L17.389,137 L126.246,22.332 L126.246,23.784 L18.769,137 M21.6,137 L20.222,137 L126.246,25.315 L126.246,26.767 L21.6,137 M24.434,137 L23.054,137 L126.246,28.298 L126.246,29.75 L24.434,137 M27.265,137 L25.887,137 L126.246,31.281 L126.246,32.733 L27.265,137 M30.097,137 L28.719,137 L126.246,34.265 L126.246,35.717 L30.097,137 M32.93,137 L31.55,137 L126.246,37.248 L126.246,38.7 L32.93,137 M35.761,137 L34.383,137 L126.246,40.232 L126.246,41.683 L35.761,137 M38.593,137 L37.214,137 L126.246,43.214 L126.246,44.667 L38.593,137 M41.426,137 L40.046,137 L126.246,46.198 L126.246,47.65 L41.426,137 M44.257,137 L42.878,137 L126.246,49.181 L126.246,50.633 L44.257,137 M47.09,137 L45.71,137 L126.246,52.164 L126.246,53.616 L47.09,137 M49.921,137 L48.543,137 L126.246,55.148 L126.246,56.6 L49.921,137 M52.754,137 L51.374,137 L126.246,58.131 L126.246,59.583 L52.754,137 M55.586,137 L54.207,137 L126.246,61.114 L126.246,62.566 L55.586,137 M58.417,137 L57.039,137 L126.246,64.098 L126.246,65.549 L58.417,137 M61.25,137 L59.871,137 L126.246,67.081 L126.246,68.533 L61.25,137 M64.081,137 L62.703,137 L126.246,70.064 L126.246,71.516 L64.081,137 M66.914,137 L65.535,137 L126.246,73.047 L126.246,74.499 L66.914,137 M69.746,137 L68.367,137 L126.246,76.031 L126.246,77.483 L69.746,137 M72.578,137 L71.199,137 L126.246,79.014 L126.246,80.466 L72.578,137 M75.41,137 L74.031,137 L126.246,81.997 L126.246,83.449 L75.41,137 M78.242,137 L76.864,137 L126.246,84.981 L126.246,86.432 L78.242,137 M81.074,137 L79.695,137 L126.246,87.964 L126.246,89.416 L81.074,137 M83.906,137 L82.527,137 L126.246,90.947 L126.246,92.399 L83.906,137 M86.738,137 L85.359,137 L126.246,93.93 L126.246,95.382 L86.738,137 M89.57,137 L88.191,137 L126.246,96.913 L126.246,98.366 L89.57,137 M92.402,137 L91.023,137 L126.246,99.897 L126.246,101.349 L92.402,137 M95.235,137 L93.855,137 L126.246,102.88 L126.246,104.332 L95.235,137 M98.066,137 L96.688,137 L126.246,105.864 L126.246,107.316 L98.066,137 M100.898,137 L99.521,137 L126.246,108.847 L126.246,110.299 L100.898,137 M103.73,137 L102.351,137 L126.246,111.829 L126.246,113.282 L103.73,137 M106.562,137 L105.184,137 L126.246,114.813 L126.246,116.265 L106.562,137 M109.394,137 L108.015,137 L126.246,117.796 L126.246,119.249 L109.394,137 M112.227,137 L110.848,137 L126.246,120.78 L126.246,122.232 L112.227,137 M115.059,137 L113.68,137 L126.246,123.763 L126.246,125.216 L115.059,137 M117.891,137 L116.512,137 L126.246,126.746 L126.246,128.199 L117.891,137 M120.723,137 L119.344,137 L126.246,129.73 L126.246,131.182 L120.723,137 M123.555,137 L122.176,137 L126.246,132.713 L126.246,134.166 L123.555,137" id="Fill-1" fill="#B4B5B4" mask="url(#mask-2)"></path>
    </g>
</svg>