<svg id="Layer_1" data-name="Layer 1" xmlns="http://www.w3.org/2000/svg" viewBox="0 0 212.17 34.88"><defs><style>.cls-1{fill:#fff;}.cls-2{fill:#f3c300;}</style></defs><title>VPComm_Logo_header</title><path class="cls-1" d="M74.1.77h.55l-1.8,6.5h-.72L70.32.77h.62l1.54,5.82h0Z" transform="translate(-2.4 -0.65)"/><path class="cls-1" d="M76.52.77v6.5h-.58V.77Z" transform="translate(-2.4 -0.65)"/><path class="cls-1" d="M78.07,4c0-1.75,0-3.37,2-3.37,1.58,0,1.6,1.3,1.6,1.88h-.57c0-.72-.2-1.39-1-1.39-1.37,0-1.39,1.16-1.39,2.88s0,2.9,1.39,2.9c.75,0,1-.67,1-1.51h.61c0,.47-.11,2-1.65,2C78.09,7.4,78.07,5.78,78.07,4Z" transform="translate(-2.4 -0.65)"/><path class="cls-1" d="M86,.77v.49H83.68V3.69h2.26v.49H83.68V6.79h2.43v.48h-3V.77Z" transform="translate(-2.4 -0.65)"/><path class="cls-1" d="M89.44.77h1.79c.54,0,1.43.08,1.43,1.58,0,1.31-.43,1.9-1.54,1.9H90v3h-.58Zm.58,3h1.07c.6,0,1-.28,1-1.3s-.48-1.2-1-1.2H90Z" transform="translate(-2.4 -0.65)"/><path class="cls-1" d="M94.53,4.12V7.27H94V.77h1.79c1.25,0,1.57.42,1.57,1.56,0,.81-.14,1.35-1,1.55v0c.91.19,1,.3,1,2.62,0,.25,0,.5.07.75h-.55a14.56,14.56,0,0,1-.09-1.62c0-.27.18-1.53-1.07-1.53Zm0-.48h.93c.87,0,1.27-.23,1.27-1.32,0-.89-.35-1.06-1-1.06H94.53Z" transform="translate(-2.4 -0.65)"/><path class="cls-1" d="M101.81.77v.49H99.44V3.69h2.26v.49H99.44V6.79h2.43v.48h-3V.77Z" transform="translate(-2.4 -0.65)"/><path class="cls-1" d="M106,2.42c0-.8-.21-1.28-1.1-1.28-.7,0-1.14.24-1.14,1,0,1,.49,1,1.23,1.53s1.62.74,1.62,2a1.54,1.54,0,0,1-1.73,1.73c-1.27,0-1.84-.68-1.79-1.95h.6c0,.72,0,1.47,1.21,1.47A1,1,0,0,0,106,5.76c0-.88-.59-1.13-1.52-1.71-1.26-.77-1.32-1.16-1.33-1.81,0-1.12.71-1.59,1.77-1.59,1.35,0,1.64.84,1.64,1.77Z" transform="translate(-2.4 -0.65)"/><path class="cls-1" d="M108.64.77v6.5h-.57V.77Z" transform="translate(-2.4 -0.65)"/><path class="cls-1" d="M110.31.77H112c1.82,0,2,1.07,2,3.28s-.32,3.22-2.28,3.22h-1.49Zm.58,6h.7c1.74,0,1.91-.47,1.91-3.12,0-1.87-.25-2.41-1.85-2.41h-.76Z" transform="translate(-2.4 -0.65)"/><path class="cls-1" d="M118.56.77v.49H116.2V3.69h2.26v.49H116.2V6.79h2.43v.48h-3V.77Z" transform="translate(-2.4 -0.65)"/><path class="cls-1" d="M120,7.27V.77h.88l2.64,5.71,0,0V.77h.57v6.5h-.87L120.61,1.5V7.27Z" transform="translate(-2.4 -0.65)"/><path class="cls-1" d="M127,1.26h-1.59V.77h3.75v.49h-1.59v6H127Z" transform="translate(-2.4 -0.65)"/><path class="cls-1" d="M132.36.77h2.75v.49h-2.17V3.69h2v.49h-2V7.27h-.58Z" transform="translate(-2.4 -0.65)"/><path class="cls-1" d="M138.22.65c1.95,0,2,1.62,2,3.37s0,3.38-2,3.38-2-1.62-2-3.38S136.28.65,138.22.65Zm0,6.27c1.37,0,1.39-1.17,1.39-2.9s0-2.88-1.39-2.88S136.83,2.3,136.83,4,136.85,6.92,138.22,6.92Z" transform="translate(-2.4 -0.65)"/><path class="cls-1" d="M142.27,4.12V7.27h-.57V.77h1.79c1.25,0,1.57.42,1.57,1.56,0,.81-.14,1.35-1,1.55v0c.91.19,1,.3,1,2.62,0,.25.05.5.06.75h-.55c-.05-.18-.08-1.26-.09-1.62s.18-1.53-1.07-1.53Zm0-.48h.94c.86,0,1.27-.23,1.27-1.32,0-.89-.35-1.06-1-1.06h-1.18Z" transform="translate(-2.4 -0.65)"/><path class="cls-1" d="M70.62,18.05c0-3.9,0-7.5,4.36-7.5,3.5,0,3.56,2.88,3.56,4.18H77.26c0-1.6-.44-3.1-2.28-3.1-3,0-3.08,2.58-3.08,6.42s0,6.42,3.08,6.42c1.66,0,2.28-1.47,2.3-3.34h1.36c0,1-.24,4.43-3.66,4.43C70.66,25.56,70.62,22,70.62,18.05Z" transform="translate(-2.4 -0.65)"/><path class="cls-1" d="M85.12,10.55c4.32,0,4.36,3.6,4.36,7.5s0,7.51-4.36,7.51S80.76,22,80.76,18.05,80.8,10.55,85.12,10.55Zm0,13.92c3,0,3.08-2.58,3.08-6.42s0-6.42-3.08-6.42S82,14.21,82,18.05,82.08,24.47,85.12,24.47Z" transform="translate(-2.4 -0.65)"/><path class="cls-1" d="M92,25.28V10.83h2.18l4.26,13.05h0l4.2-13h2V25.28h-1.28V12.07h0L99.19,25.28H97.71L93.35,12.07h0V25.28Z" transform="translate(-2.4 -0.65)"/><path class="cls-1" d="M107.52,25.28V10.83h2.18L114,23.88h0l4.21-13h2V25.28H119V12.07h0l-4.24,13.21H113.2l-4.36-13.21h0V25.28Z" transform="translate(-2.4 -0.65)"/><path class="cls-1" d="M124.24,19.91c0,1.88,0,4.56,2.94,4.56s2.94-2.68,2.94-4.56V10.83h1.28v10c0,3.73-2,4.71-4.22,4.71s-4.22-1-4.22-4.71v-10h1.28Z" transform="translate(-2.4 -0.65)"/><path class="cls-1" d="M134.16,25.28V10.83h2L142,23.51l0,0V10.83h1.28V25.28h-1.94l-5.88-12.83,0,0V25.28Z" transform="translate(-2.4 -0.65)"/><path class="cls-1" d="M147.47,10.83V25.28h-1.28V10.83Z" transform="translate(-2.4 -0.65)"/><path class="cls-1" d="M150.05,18.05c0-3.9,0-7.5,4.36-7.5,3.5,0,3.56,2.88,3.56,4.18h-1.28c0-1.6-.44-3.1-2.28-3.1-3,0-3.08,2.58-3.08,6.42s0,6.42,3.08,6.42c1.66,0,2.28-1.47,2.3-3.34h1.36c0,1-.24,4.43-3.66,4.43C150.09,25.56,150.05,22,150.05,18.05Z" transform="translate(-2.4 -0.65)"/><path class="cls-1" d="M165.41,10.83l4.5,14.45h-1.34l-1.16-3.81h-5.66l-1.14,3.81h-1.28l4.56-14.45Zm1.66,9.56-2.46-8.16h0l-2.44,8.16Z" transform="translate(-2.4 -0.65)"/><path class="cls-1" d="M173.07,11.91h-3.52V10.83h8.32v1.08h-3.52V25.28h-1.28Z" transform="translate(-2.4 -0.65)"/><path class="cls-1" d="M181.22,10.83V25.28h-1.28V10.83Z" transform="translate(-2.4 -0.65)"/><path class="cls-1" d="M188.2,10.55c4.32,0,4.36,3.6,4.36,7.5s0,7.51-4.36,7.51-4.37-3.61-4.37-7.51S183.88,10.55,188.2,10.55Zm0,13.92c3,0,3.08-2.58,3.08-6.42s0-6.42-3.08-6.42-3.08,2.58-3.08,6.42S185.16,24.47,188.2,24.47Z" transform="translate(-2.4 -0.65)"/><path class="cls-1" d="M195.16,25.28V10.83h2L203,23.51l0,0V10.83h1.28V25.28h-1.94l-5.88-12.83,0,0V25.28Z" transform="translate(-2.4 -0.65)"/><path class="cls-1" d="M213.23,14.49c0-1.78-.48-2.86-2.44-2.86-1.56,0-2.54.54-2.54,2.24,0,2.14,1.08,2.2,2.72,3.38s3.6,1.66,3.6,4.46c0,2.58-1.32,3.85-3.84,3.85-2.82,0-4.08-1.52-4-4.35h1.32c0,1.6.12,3.26,2.7,3.26a2.25,2.25,0,0,0,2.5-2.56c0-2-1.3-2.52-3.38-3.8-2.8-1.72-2.92-2.58-2.94-4,0-2.5,1.56-3.54,3.92-3.54,3,0,3.64,1.86,3.64,3.94Z" transform="translate(-2.4 -0.65)"/><rect class="cls-1" x="57.95" y="0.16" width="0.75" height="34.51"/><path class="cls-1" d="M189.63,35.35V35c.43,0,.77-.06.77-.41a1.17,1.17,0,0,0-.08-.38l-.19-.65h-2.24l-.2.55a1.09,1.09,0,0,0-.08.39c0,.46.47.49.86.5v.34h-2.63V35c.67,0,.89-.16,1.14-.83l1.72-4.73-.1-.16a3.79,3.79,0,0,0,1.27-.58c.12.43.14.48.28.94L191.57,34c.25.77.37,1,1,1v.34Zm-.57-5.11-.94,2.64H190Zm-22.22,3.7a3,3,0,0,1-2.72,1.59A3.09,3.09,0,0,1,161,32.25a3.18,3.18,0,0,1,3.21-3.43,3.1,3.1,0,0,1,2.1.77l.44-.4,0,1.94-.28.05a2.6,2.6,0,0,0-.69-1.12,1.89,1.89,0,0,0-1.33-.62c-1.16,0-2.07.94-2.07,2.59,0,1.4.75,2.72,2.23,2.72a2,2,0,0,0,1.86-1.1Zm1.08,1.41V35c.72-.06.73-.22.73-.83,0-.22,0-.45,0-.68V30.83a9.49,9.49,0,0,0,0-1c0-.38-.21-.43-.71-.48V29h2.73v.34c-.53.05-.73.07-.79.42a6.24,6.24,0,0,0-.06,1.06v.88c.55,0,.94,0,1.47,0s1,0,1.52,0V30.61c0-1.16,0-1.21-.89-1.29V29h2.77v.34c-.75.09-.75.1-.75,1.31v2.69c0,.25,0,1.06,0,1.25s.24.4.71.44v.34H171.9V35c.64-.07.81-.09.87-.53,0-.18,0-.42,0-.89V32.42c-.51,0-.93,0-1.46,0s-1,0-1.53,0v1.17c0,1.33,0,1.33.85,1.42v.34Zm7.87,0V35c.63-.08.75-.15.76-.82v-3.4c0-1.32,0-1.36-.76-1.47V29h2.66v.34c-.75.07-.75.11-.75,1.47v2.58c0,.22,0,.94,0,1.13.05.38.23.48.73.51v.34Zm-18.17,0V35c.62-.08.75-.15.76-.82v-3.4c0-1.32,0-1.36-.76-1.47V29h2.65v.34c-.75.07-.75.11-.75,1.47v2.58c0,.22,0,.94,0,1.13.05.38.23.48.73.51v.34Zm-4,0V35c.8,0,.8-.09.81-1.27V30.53l-2.23,4.91h-.56l-2.05-5,0,3.76c0,.62.07.74.75.79v.34h-2.21V35c.51,0,.71-.1.75-.53,0-.17,0-.71.05-1.06l.09-2.67c0-.21,0-.52,0-.75,0-.63-.13-.67-.69-.68V29h2l2,4.84L154.45,29h1.94v.37c-.76,0-.77.13-.76,1.12V33.1c0,.44,0,1,0,1.31s.21.56.72.6v.34Zm39.43,0V35c.52,0,.72,0,.79-.4s.12-4.21.13-4.87a1.23,1.23,0,0,0-.92-.42V29h1.91c.54.76.65.93,1.59,2.09l1.79,2.21V30.42c0-1,0-1.07-1-1.1V29h2.51v.34c-.7,0-.76.15-.77,1.19l-.09,4.93h-.38l-.57-.72-.87-1.07-2.52-3.11v3.3c0,1,.07,1.07,1,1.17v.34ZM139.8,32.16a3.12,3.12,0,0,1-3.2,3.36,3.21,3.21,0,0,1-3.3-3.37,3.13,3.13,0,0,1,3.21-3.31A3.17,3.17,0,0,1,139.8,32.16Zm-3.19,2.77a1.57,1.57,0,0,0,1.26-.79,3.39,3.39,0,0,0,.52-2.16,3.11,3.11,0,0,0-.72-2,1.54,1.54,0,0,0-1.15-.52,1.53,1.53,0,0,0-1.12.56,3,3,0,0,0-.66,2.05,3.42,3.42,0,0,0,.58,2.14A1.58,1.58,0,0,0,136.61,34.93Zm3.83.07v.35h2.64V35c-.66-.06-.74-.12-.76-.82V32.36H143c.71,0,1.09.07,1.14.78h.3V31h-.3c0,.68-.23.75-1,.75h-.84V29.58a5.12,5.12,0,0,1,.76,0c1.25,0,1.65,0,1.82,1h.32L145.11,29h-4.67v.34c.45.05.66.07.72.37a10.55,10.55,0,0,1,.05,1.16v2.24c0,.17,0,.94,0,1.09C141.17,34.88,141.1,34.94,140.44,35Zm-54.85.35V35c.62-.08.75-.15.76-.82v-3.4c0-1.33,0-1.37-.76-1.47V29h2.65v.35c-.75.07-.75.1-.75,1.47v2.58c0,.22,0,.94,0,1.13,0,.38.22.47.72.51v.34Zm28.11,0V35c.62-.08.75-.15.76-.82v-3.4c0-1.33,0-1.37-.76-1.47V29h2.65v.35c-.76.07-.76.1-.76,1.47v2.58c0,.22,0,.94,0,1.13,0,.38.23.47.73.51v.34Zm-35.88,0V35c.52,0,.72,0,.8-.4s.11-4.21.12-4.87a1.2,1.2,0,0,0-.92-.42V29h1.92c.53.76.65.93,1.59,2.1l1.78,2.2V30.42c0-1,0-1.07-1-1.1V29h2.51v.35c-.7,0-.76.15-.76,1.19l-.1,4.93h-.38l-.57-.72c-.29-.36-.57-.72-.86-1.07l-2.52-3.12v3.31c0,1,.07,1.07,1,1.17v.34Zm30.61-2,.32,0c.35,1,.94,1.6,1.9,1.6.68,0,1.27-.29,1.27-1s-.69-1-1-1.13-.52-.19-.78-.29a1.92,1.92,0,0,1-1.51-1.83,1.87,1.87,0,0,1,2-1.86,2.67,2.67,0,0,1,1.46.43l.39-.28.21,1.9-.32.06A2.21,2.21,0,0,0,112,30a1.51,1.51,0,0,0-1.25-.59c-.68,0-1.07.33-1.07.84,0,.75.75,1,1.46,1.24a5,5,0,0,1,.92.37A1.87,1.87,0,0,1,113,33.5a2.09,2.09,0,0,1-2.25,2,2.89,2.89,0,0,1-1.65-.51l-.53-.39Zm10.49,2v-.27c.58,0,.75-.22.75-.73v-4.7h-.8c-.72,0-1.2,0-1.25,1.11h-.34l.06-1.79h5.79l.05,1.79h-.33c0-1.14-.53-1.11-1.25-1.11h-.8v4.7c0,.51.17.72.75.73v.27ZM72.94,29v.35c-.85.06-.85.09-.86,1.44v1.5a3.42,3.42,0,0,0,.43,2.05,1.37,1.37,0,0,0,1.16.53,1.55,1.55,0,0,0,1.63-1.22,10.69,10.69,0,0,0,.19-2.46c0-.23,0-1,0-1.2,0-.58-.33-.6-.9-.64V29H77v.35c-.6,0-.73.12-.76.76,0,.15-.08,1.92-.09,2.19A7.46,7.46,0,0,1,76,33.7a2.47,2.47,0,0,1-2.54,1.81,3.2,3.2,0,0,1-1.68-.45c-1-.65-1-1.6-1-2.63V31c0-.69,0-1,0-1.16-.06-.4-.26-.47-.73-.5V29Zm22.62,0v.35c-.61.09-.7.26-1.22,1.53l-2,4.63h-.34l-1.74-4.71c-.44-1.21-.49-1.35-1.13-1.45V29h3v.35c-.52,0-.85,0-.85.4a2.91,2.91,0,0,0,.21.87l1.11,3.25L94,30.48a2.59,2.59,0,0,0,.18-.67c0-.46-.45-.49-.84-.49V29Zm30.25,6.38V35c.5,0,.69-.07.81-.2s.15-.3.15-1V32.69l-1.69-2.63c-.46-.69-.47-.71-1.08-.74V29h3.32v.36c-.67,0-1,0-1,.34a1.51,1.51,0,0,0,.28.64l1,1.6.9-1.59a1.75,1.75,0,0,0,.25-.65c0-.31-.26-.31-.7-.34V29h2.49v.36c-.64,0-.83.21-1.56,1.4l-1,1.66v1.33c0,1.16,0,1.25.95,1.3v.34Zm-24.78,0a14.7,14.7,0,0,1,.13-1.65h-.31c-.22,1.14-.85,1.08-1.78,1.08s-1-.22-1-.64V32.36h.69c.78,0,1,.07,1,.78h.31V31h-.31c-.06.57-.18.76-1,.76h-.7V29.54h.78c1.09,0,1.48.08,1.63.95h.29l0-1.52H96.16v.34c.46.05.66.08.72.38a8.42,8.42,0,0,1,.06,1.15v2.25c0,.17,0,.93,0,1.09,0,.69-.1.76-.76.82v.35Zm84.5-2.81v.34c-.58,0-.58.2-.6,1.41v.48a4.19,4.19,0,0,1-2.46.75,3.15,3.15,0,0,1-3.24-3.34,3.13,3.13,0,0,1,3.12-3.37,3.83,3.83,0,0,1,2.23.73l.34-.38.05,2-.26.05a3.31,3.31,0,0,0-.81-1.3,1.75,1.75,0,0,0-1.26-.47c-1.12,0-2,.93-2,2.77,0,1.47.72,2.72,2,2.72a1.41,1.41,0,0,0,1.11-.53.88.88,0,0,0,.13-.61c0-.81-.14-.83-.84-.9v-.34ZM104,31.93a2.88,2.88,0,0,0,.59.07,1.29,1.29,0,0,0,1.31-1.08c0-.74-.34-1.38-1.51-1.38a2.13,2.13,0,0,0-.39,0Zm0,1.39c0,1.46,0,1.66.78,1.68v.35H102.1V35c.69,0,.76-.16.77-.85,0-.26,0-.56,0-.82V31a9.37,9.37,0,0,0,0-1.24c0-.36-.22-.42-.74-.47V29H105c1.58,0,2.07.75,2.07,1.64a1.78,1.78,0,0,1-1.26,1.68l1.13,2c.41.75.63.92,1.15,1v.22l-.42,0A2.09,2.09,0,0,1,105.45,34l-.35-.75c-.38-.81-.51-.76-1.11-.77Z" transform="translate(-2.4 -0.65)"/><path class="cls-2" d="M26.53,29.3,16.65,15.79v9.83h3.93v9.7H2.4v-9.7H6.08V10.51H2.4V.81H16.68l9.85,13.6L36.38.81H50.65v9.7H47V25.62h3.68v9.7H32.48v-9.7h3.93V15.79Z" transform="translate(-2.4 -0.65)"/></svg>